<svg width="33" height="33" viewBox="0 0 33 33" fill="none" xmlns="http://www.w3.org/2000/svg">
<path d="M24.7202 11.2559C24.7202 9.45687 24.7202 8.55735 24.3665 7.87022C24.0554 7.2658 23.5589 6.77438 22.9482 6.46642C22.254 6.1163 21.3453 6.1163 19.5277 6.1163H12.6044C10.7869 6.1163 9.8781 6.1163 9.18389 6.46642C8.57325 6.77438 8.07678 7.2658 7.76564 7.87022C7.41193 8.55735 7.41193 9.45687 7.41193 11.2559V21.3408C7.41193 23.1399 7.41193 24.0394 7.76564 24.7265C8.07678 25.3309 8.57325 25.8223 9.18389 26.1303C9.8781 26.4804 10.7869 26.4804 12.6044 26.4804H15.2885" stroke="black" stroke-width="1.6887" stroke-linecap="round" stroke-linejoin="round"/>
<path d="M11.8376 10.7129L14.1244 13.0036L11.8376 15.2944" stroke="black" stroke-width="1.6887" stroke-linecap="round" stroke-linejoin="round"/>
<path d="M21.8606 15.1471C21.8606 18.0926 20.4728 20.8137 17.5273 20.8137C20.4728 20.8137 21.8606 23.5349 21.8606 26.4804C21.8606 23.5349 23.2484 20.8137 26.1939 20.8137C23.2484 20.8137 21.8606 18.0926 21.8606 15.1471Z" stroke="black" stroke-width="1.6887" stroke-linecap="round" stroke-linejoin="round"/>
</svg>
